<?xml version="1.0" encoding="UTF-8" standalone="no"?>
<!DOCTYPE svg PUBLIC "-//W3C//DTD SVG 1.1//EN" "http://www.w3.org/Graphics/SVG/1.1/DTD/svg11.dtd">
<svg width="100%" height="100%" viewBox="0 0 8334 1389" version="1.1" xmlns="http://www.w3.org/2000/svg" xmlns:xlink="http://www.w3.org/1999/xlink" xml:space="preserve" xmlns:serif="http://www.serif.com/" style="fill-rule:evenodd;clip-rule:evenodd;stroke-linecap:round;stroke-linejoin:round;stroke-miterlimit:1.5;">
    <g transform="matrix(5.55556,0,0,5.55556,-7.93424,-5283.93)">
        <g id="Banner-4-Artboard" serif:id="Banner 4 Artboard" transform="matrix(1,0,0,1,-1548.57,951.107)">
            <rect x="1550" y="0" width="1500" height="250" style="fill:none;"/>
            <clipPath id="_clip1">
                <rect x="1550" y="0" width="1500" height="250"/>
            </clipPath>
            <g clip-path="url(#_clip1)">
                <g transform="matrix(0.999766,0,0,1.00661,1550.58,-0.60191)">
                    <rect x="-0.204" y="0.651" width="1500.55" height="248.757" style="fill:url(#_Radial2);"/>
                </g>
                <g transform="matrix(0.999766,0,0,1.00661,1550.58,-0.60191)">
                    <rect x="-0.204" y="0.651" width="1500.55" height="248.757" style="fill:url(#_Radial3);"/>
                </g>
                <g transform="matrix(0.682373,-0.731004,0.731004,0.682373,922.116,-182.903)">
                    <path d="M612.303,1020.2L608.902,1042.35L615.024,1039.37L614.959,1046.82L619.892,1044.09L624.757,1059.52L624.876,1035.34L619.398,1038.42L618.961,1030.51L614.665,1032.7L612.303,1020.2Z" style="fill:rgb(253,255,64);stroke:rgb(253,255,64);stroke-width:2.5px;"/>
                </g>
                <g transform="matrix(-0.0292107,-0.999573,0.999573,-0.0292107,1083.35,779.23)">
                    <path d="M612.303,1020.2L608.902,1042.35L615.024,1039.37L614.959,1046.82L619.892,1044.09L624.757,1059.52L624.876,1035.34L619.398,1038.42L618.961,1030.51L614.665,1032.7L612.303,1020.2Z" style="fill:rgb(253,255,64);stroke:rgb(253,255,64);stroke-width:2.5px;"/>
                </g>
                <g transform="matrix(-0.403538,-0.914963,0.914963,-0.403538,1428.27,1165.13)">
                    <path d="M612.303,1020.2L608.902,1042.35L615.024,1039.37L614.959,1046.82L619.892,1044.09L624.757,1059.52L624.876,1035.34L619.398,1038.42L618.961,1030.51L614.665,1032.7L612.303,1020.2Z" style="fill:rgb(253,255,64);stroke:rgb(253,255,64);stroke-width:2.5px;"/>
                </g>
                <g transform="matrix(-0.605667,-0.795718,0.795718,-0.605667,1717.9,1336.51)">
                    <path d="M612.303,1020.2L608.902,1042.35L615.024,1039.37L614.959,1046.82L619.892,1044.09L624.757,1059.52L624.876,1035.34L619.398,1038.42L618.961,1030.51L614.665,1032.7L612.303,1020.2Z" style="fill:rgb(253,255,64);stroke:rgb(253,255,64);stroke-width:2.5px;"/>
                </g>
                <g transform="matrix(0.797515,-0.603299,0.603299,0.797515,1013.98,-421.798)">
                    <path d="M612.303,1020.2L608.902,1042.35L615.024,1039.37L614.959,1046.82L619.892,1044.09L624.757,1059.52L624.876,1035.34L619.398,1038.42L618.961,1030.51L614.665,1032.7L612.303,1020.2Z" style="fill:rgb(253,255,64);stroke:rgb(253,255,64);stroke-width:2.5px;"/>
                </g>
                <g transform="matrix(0.781068,-0.78344,0.78344,0.781068,744.265,-259.559)">
                    <path d="M612.303,1020.2L608.902,1042.35L615.024,1039.37L614.959,1046.82L619.892,1044.09L624.757,1059.52L624.876,1035.34L619.398,1038.42L618.961,1030.51L614.665,1032.7L612.303,1020.2Z" style="fill:rgb(253,255,64);stroke:rgb(253,255,64);stroke-width:2.26px;"/>
                </g>
                <g transform="matrix(0.00405296,-1.10627,1.10627,0.00405296,887.546,810.114)">
                    <path d="M612.303,1020.2L608.902,1042.35L615.024,1039.37L614.959,1046.82L619.892,1044.09L624.757,1059.52L624.876,1035.34L619.398,1038.42L618.961,1030.51L614.665,1032.7L612.303,1020.2Z" style="fill:rgb(253,255,64);stroke:rgb(253,255,64);stroke-width:2.26px;"/>
                </g>
                <g transform="matrix(-0.41291,-1.02633,1.02633,-0.41291,1254.88,1249.34)">
                    <path d="M612.303,1020.2L608.902,1042.35L615.024,1039.37L614.959,1046.82L619.892,1044.09L624.757,1059.52L624.876,1035.34L619.398,1038.42L618.961,1030.51L614.665,1032.7L612.303,1020.2Z" style="fill:rgb(253,255,64);stroke:rgb(253,255,64);stroke-width:2.26px;"/>
                </g>
                <g transform="matrix(-0.640736,-0.901834,0.901834,-0.640736,1568.89,1449.36)">
                    <path d="M612.303,1020.2L608.902,1042.35L615.024,1039.37L614.959,1046.82L619.892,1044.09L624.757,1059.52L624.876,1035.34L619.398,1038.42L618.961,1030.51L614.665,1032.7L612.303,1020.2Z" style="fill:rgb(253,255,64);stroke:rgb(253,255,64);stroke-width:2.26px;"/>
                </g>
                <g transform="matrix(0.903735,-0.638051,0.638051,0.903735,854.528,-520.359)">
                    <path d="M612.303,1020.2L608.902,1042.35L615.024,1039.37L614.959,1046.82L619.892,1044.09L624.757,1059.52L624.876,1035.34L619.398,1038.42L618.961,1030.51L614.665,1032.7L612.303,1020.2Z" style="fill:rgb(253,255,64);stroke:rgb(253,255,64);stroke-width:2.26px;"/>
                </g>
                <g transform="matrix(0.892435,-0.895144,0.895144,0.892435,488.86,-312.724)">
                    <path d="M612.303,1020.2L608.902,1042.35L615.024,1039.37L614.959,1046.82L619.892,1044.09L624.757,1059.52L624.876,1035.34L619.398,1038.42L618.961,1030.51L614.665,1032.7L612.303,1020.2Z" style="fill:rgb(253,255,64);stroke:rgb(253,255,64);stroke-width:1.98px;"/>
                </g>
                <g transform="matrix(0.00463084,-1.264,1.264,0.00463084,652.57,909.465)">
                    <path d="M612.303,1020.2L608.902,1042.35L615.024,1039.37L614.959,1046.82L619.892,1044.09L624.757,1059.52L624.876,1035.34L619.398,1038.42L618.961,1030.51L614.665,1032.7L612.303,1020.2Z" style="fill:rgb(253,255,64);stroke:rgb(253,255,64);stroke-width:1.98px;"/>
                </g>
                <g transform="matrix(-0.471783,-1.17267,1.17267,-0.471783,1072.28,1411.32)">
                    <path d="M612.303,1020.2L608.902,1042.35L615.024,1039.37L614.959,1046.82L619.892,1044.09L624.757,1059.52L624.876,1035.34L619.398,1038.42L618.961,1030.51L614.665,1032.7L612.303,1020.2Z" style="fill:rgb(253,255,64);stroke:rgb(253,255,64);stroke-width:1.98px;"/>
                </g>
                <g transform="matrix(-0.732093,-1.03042,1.03042,-0.732093,1431.06,1639.85)">
                    <path d="M612.303,1020.2L608.902,1042.35L615.024,1039.37L614.959,1046.82L619.892,1044.09L624.757,1059.52L624.876,1035.34L619.398,1038.42L618.961,1030.51L614.665,1032.7L612.303,1020.2Z" style="fill:rgb(253,255,64);stroke:rgb(253,255,64);stroke-width:1.98px;"/>
                </g>
                <g transform="matrix(1.03259,-0.729026,0.729026,1.03259,614.845,-610.709)">
                    <path d="M612.303,1020.2L608.902,1042.35L615.024,1039.37L614.959,1046.82L619.892,1044.09L624.757,1059.52L624.876,1035.34L619.398,1038.42L618.961,1030.51L614.665,1032.7L612.303,1020.2Z" style="fill:rgb(253,255,64);stroke:rgb(253,255,64);stroke-width:1.98px;"/>
                </g>
                <g transform="matrix(0.993668,-0.996685,0.996685,0.993668,248.09,-362.087)">
                    <path d="M612.303,1020.2L608.902,1042.35L615.024,1039.37L614.959,1046.82L619.892,1044.09L624.757,1059.52L624.876,1035.34L619.398,1038.42L618.961,1030.51L614.665,1032.7L612.303,1020.2Z" style="fill:rgb(253,255,64);stroke:rgb(253,255,64);stroke-width:1.78px;"/>
                </g>
                <g transform="matrix(0.00515614,-1.40738,1.40738,0.00515614,430.371,998.742)">
                    <path d="M612.303,1020.2L608.902,1042.35L615.024,1039.37L614.959,1046.82L619.892,1044.09L624.757,1059.52L624.876,1035.34L619.398,1038.42L618.961,1030.51L614.665,1032.7L612.303,1020.2Z" style="fill:rgb(253,255,64);stroke:rgb(253,255,64);stroke-width:1.78px;"/>
                </g>
                <g transform="matrix(-0.5253,-1.30569,1.30569,-0.5253,897.691,1557.52)">
                    <path d="M612.303,1020.2L608.902,1042.35L615.024,1039.37L614.959,1046.82L619.892,1044.09L624.757,1059.52L624.876,1035.34L619.398,1038.42L618.961,1030.51L614.665,1032.7L612.303,1020.2Z" style="fill:rgb(253,255,64);stroke:rgb(253,255,64);stroke-width:1.78px;"/>
                </g>
                <g transform="matrix(-0.815138,-1.1473,1.1473,-0.815138,1297.17,1811.98)">
                    <path d="M612.303,1020.2L608.902,1042.35L615.024,1039.37L614.959,1046.82L619.892,1044.09L624.757,1059.52L624.876,1035.34L619.398,1038.42L618.961,1030.51L614.665,1032.7L612.303,1020.2Z" style="fill:rgb(253,255,64);stroke:rgb(253,255,64);stroke-width:1.78px;"/>
                </g>
                <g transform="matrix(1.14972,-0.811723,0.811723,1.14972,388.366,-693.874)">
                    <path d="M612.303,1020.2L608.902,1042.35L615.024,1039.37L614.959,1046.82L619.892,1044.09L624.757,1059.52L624.876,1035.34L619.398,1038.42L618.961,1030.51L614.665,1032.7L612.303,1020.2Z" style="fill:rgb(253,255,64);stroke:rgb(253,255,64);stroke-width:1.78px;"/>
                </g>
                <g transform="matrix(-0.682373,-0.731004,-0.731004,0.682373,3669.81,-182.903)">
                    <path d="M612.303,1020.2L608.902,1042.35L615.024,1039.37L614.959,1046.82L619.892,1044.09L624.757,1059.52L624.876,1035.34L619.398,1038.42L618.961,1030.51L614.665,1032.7L612.303,1020.2Z" style="fill:rgb(253,255,64);stroke:rgb(253,255,64);stroke-width:2.5px;"/>
                </g>
                <g transform="matrix(0.0292107,-0.999573,-0.999573,-0.0292107,3508.58,779.23)">
                    <path d="M612.303,1020.2L608.902,1042.35L615.024,1039.37L614.959,1046.82L619.892,1044.09L624.757,1059.52L624.876,1035.34L619.398,1038.42L618.961,1030.51L614.665,1032.7L612.303,1020.2Z" style="fill:rgb(253,255,64);stroke:rgb(253,255,64);stroke-width:2.5px;"/>
                </g>
                <g transform="matrix(0.403538,-0.914963,-0.914963,-0.403538,3163.66,1165.13)">
                    <path d="M612.303,1020.2L608.902,1042.35L615.024,1039.37L614.959,1046.82L619.892,1044.09L624.757,1059.52L624.876,1035.34L619.398,1038.42L618.961,1030.51L614.665,1032.7L612.303,1020.2Z" style="fill:rgb(253,255,64);stroke:rgb(253,255,64);stroke-width:2.5px;"/>
                </g>
                <g transform="matrix(0.605667,-0.795718,-0.795718,-0.605667,2874.03,1336.51)">
                    <path d="M612.303,1020.2L608.902,1042.35L615.024,1039.37L614.959,1046.82L619.892,1044.09L624.757,1059.52L624.876,1035.34L619.398,1038.42L618.961,1030.51L614.665,1032.7L612.303,1020.2Z" style="fill:rgb(253,255,64);stroke:rgb(253,255,64);stroke-width:2.5px;"/>
                </g>
                <g transform="matrix(-0.797515,-0.603299,-0.603299,0.797515,3577.95,-421.798)">
                    <path d="M612.303,1020.2L608.902,1042.35L615.024,1039.37L614.959,1046.82L619.892,1044.09L624.757,1059.52L624.876,1035.34L619.398,1038.42L618.961,1030.51L614.665,1032.7L612.303,1020.2Z" style="fill:rgb(253,255,64);stroke:rgb(253,255,64);stroke-width:2.5px;"/>
                </g>
                <g transform="matrix(-0.781068,-0.78344,-0.78344,0.781068,3847.66,-259.559)">
                    <path d="M612.303,1020.2L608.902,1042.35L615.024,1039.37L614.959,1046.82L619.892,1044.09L624.757,1059.52L624.876,1035.34L619.398,1038.42L618.961,1030.51L614.665,1032.7L612.303,1020.2Z" style="fill:rgb(253,255,64);stroke:rgb(253,255,64);stroke-width:2.26px;"/>
                </g>
                <g transform="matrix(-0.00405296,-1.10627,-1.10627,0.00405296,3704.38,810.114)">
                    <path d="M612.303,1020.2L608.902,1042.35L615.024,1039.37L614.959,1046.82L619.892,1044.09L624.757,1059.52L624.876,1035.34L619.398,1038.42L618.961,1030.51L614.665,1032.7L612.303,1020.2Z" style="fill:rgb(253,255,64);stroke:rgb(253,255,64);stroke-width:2.26px;"/>
                </g>
                <g transform="matrix(0.41291,-1.02633,-1.02633,-0.41291,3337.05,1249.34)">
                    <path d="M612.303,1020.2L608.902,1042.35L615.024,1039.37L614.959,1046.82L619.892,1044.09L624.757,1059.52L624.876,1035.34L619.398,1038.42L618.961,1030.51L614.665,1032.7L612.303,1020.2Z" style="fill:rgb(253,255,64);stroke:rgb(253,255,64);stroke-width:2.26px;"/>
                </g>
                <g transform="matrix(0.640736,-0.901834,-0.901834,-0.640736,3023.04,1449.36)">
                    <path d="M612.303,1020.2L608.902,1042.35L615.024,1039.37L614.959,1046.82L619.892,1044.09L624.757,1059.52L624.876,1035.34L619.398,1038.42L618.961,1030.51L614.665,1032.7L612.303,1020.2Z" style="fill:rgb(253,255,64);stroke:rgb(253,255,64);stroke-width:2.26px;"/>
                </g>
                <g transform="matrix(-0.903735,-0.638051,-0.638051,0.903735,3737.4,-520.359)">
                    <path d="M612.303,1020.2L608.902,1042.35L615.024,1039.37L614.959,1046.82L619.892,1044.09L624.757,1059.52L624.876,1035.34L619.398,1038.42L618.961,1030.51L614.665,1032.7L612.303,1020.2Z" style="fill:rgb(253,255,64);stroke:rgb(253,255,64);stroke-width:2.26px;"/>
                </g>
                <g transform="matrix(-0.892435,-0.895144,-0.895144,0.892435,4103.07,-312.724)">
                    <path d="M612.303,1020.2L608.902,1042.35L615.024,1039.37L614.959,1046.82L619.892,1044.09L624.757,1059.52L624.876,1035.34L619.398,1038.42L618.961,1030.51L614.665,1032.7L612.303,1020.2Z" style="fill:rgb(253,255,64);stroke:rgb(253,255,64);stroke-width:1.98px;"/>
                </g>
                <g transform="matrix(-0.00463084,-1.264,-1.264,0.00463084,3939.36,909.465)">
                    <path d="M612.303,1020.2L608.902,1042.35L615.024,1039.37L614.959,1046.82L619.892,1044.09L624.757,1059.52L624.876,1035.34L619.398,1038.42L618.961,1030.51L614.665,1032.7L612.303,1020.2Z" style="fill:rgb(253,255,64);stroke:rgb(253,255,64);stroke-width:1.98px;"/>
                </g>
                <g transform="matrix(0.471783,-1.17267,-1.17267,-0.471783,3519.65,1411.32)">
                    <path d="M612.303,1020.2L608.902,1042.35L615.024,1039.37L614.959,1046.82L619.892,1044.09L624.757,1059.52L624.876,1035.34L619.398,1038.42L618.961,1030.51L614.665,1032.7L612.303,1020.2Z" style="fill:rgb(253,255,64);stroke:rgb(253,255,64);stroke-width:1.98px;"/>
                </g>
                <g transform="matrix(0.732093,-1.03042,-1.03042,-0.732093,3160.87,1639.85)">
                    <path d="M612.303,1020.2L608.902,1042.35L615.024,1039.37L614.959,1046.82L619.892,1044.09L624.757,1059.52L624.876,1035.34L619.398,1038.42L618.961,1030.51L614.665,1032.7L612.303,1020.2Z" style="fill:rgb(253,255,64);stroke:rgb(253,255,64);stroke-width:1.98px;"/>
                </g>
                <g transform="matrix(-1.03259,-0.729026,-0.729026,1.03259,3977.08,-610.709)">
                    <path d="M612.303,1020.2L608.902,1042.35L615.024,1039.37L614.959,1046.82L619.892,1044.09L624.757,1059.52L624.876,1035.34L619.398,1038.42L618.961,1030.51L614.665,1032.7L612.303,1020.2Z" style="fill:rgb(253,255,64);stroke:rgb(253,255,64);stroke-width:1.98px;"/>
                </g>
                <g transform="matrix(-0.993668,-0.996685,-0.996685,0.993668,4343.84,-362.087)">
                    <path d="M612.303,1020.2L608.902,1042.35L615.024,1039.37L614.959,1046.82L619.892,1044.09L624.757,1059.52L624.876,1035.34L619.398,1038.42L618.961,1030.51L614.665,1032.7L612.303,1020.2Z" style="fill:rgb(253,255,64);stroke:rgb(253,255,64);stroke-width:1.78px;"/>
                </g>
                <g transform="matrix(-0.00515614,-1.40738,-1.40738,0.00515614,4161.56,998.742)">
                    <path d="M612.303,1020.2L608.902,1042.35L615.024,1039.37L614.959,1046.82L619.892,1044.09L624.757,1059.52L624.876,1035.34L619.398,1038.42L618.961,1030.51L614.665,1032.7L612.303,1020.2Z" style="fill:rgb(253,255,64);stroke:rgb(253,255,64);stroke-width:1.78px;"/>
                </g>
                <g transform="matrix(0.5253,-1.30569,-1.30569,-0.5253,3694.24,1557.52)">
                    <path d="M612.303,1020.2L608.902,1042.35L615.024,1039.37L614.959,1046.82L619.892,1044.09L624.757,1059.52L624.876,1035.34L619.398,1038.42L618.961,1030.51L614.665,1032.7L612.303,1020.2Z" style="fill:rgb(253,255,64);stroke:rgb(253,255,64);stroke-width:1.78px;"/>
                </g>
                <g transform="matrix(-1.14972,-0.811723,-0.811723,1.14972,4203.56,-693.874)">
                    <path d="M612.303,1020.2L608.902,1042.35L615.024,1039.37L614.959,1046.82L619.892,1044.09L624.757,1059.52L624.876,1035.34L619.398,1038.42L618.961,1030.51L614.665,1032.7L612.303,1020.2Z" style="fill:rgb(253,255,64);stroke:rgb(253,255,64);stroke-width:1.78px;"/>
                </g>
            </g>
        </g>
    </g>
    <defs>
        <radialGradient id="_Radial2" cx="0" cy="0" r="1" gradientUnits="userSpaceOnUse" gradientTransform="matrix(685.331,-2.59247,2.59247,685.331,749.587,117.629)"><stop offset="0" style="stop-color:rgb(156,237,254);stop-opacity:1"/><stop offset="0.28" style="stop-color:rgb(59,156,222);stop-opacity:1"/><stop offset="0.5" style="stop-color:rgb(19,122,209);stop-opacity:1"/><stop offset="1" style="stop-color:rgb(4,55,95);stop-opacity:1"/></radialGradient>
        <radialGradient id="_Radial3" cx="0" cy="0" r="1" gradientUnits="userSpaceOnUse" gradientTransform="matrix(685.331,-2.59247,2.59247,685.331,749.587,117.629)"><stop offset="0" style="stop-color:rgb(156,237,254);stop-opacity:1"/><stop offset="0.28" style="stop-color:rgb(59,156,222);stop-opacity:1"/><stop offset="0.5" style="stop-color:rgb(19,122,209);stop-opacity:1"/><stop offset="1" style="stop-color:rgb(4,55,95);stop-opacity:1"/></radialGradient>
    </defs>
</svg>
