<?xml version="1.0" encoding="UTF-8" standalone="no"?><!DOCTYPE svg PUBLIC "-//W3C//DTD SVG 1.1//EN" "http://www.w3.org/Graphics/SVG/1.1/DTD/svg11.dtd"><svg width="100%" height="100%" viewBox="0 0 2917 417" version="1.1" xmlns="http://www.w3.org/2000/svg" xmlns:xlink="http://www.w3.org/1999/xlink" xml:space="preserve" xmlns:serif="http://www.serif.com/" style="fill-rule:evenodd;clip-rule:evenodd;stroke-linejoin:round;stroke-miterlimit:2;"><g transform="matrix(1,0,-0.267949,1,-68.7799,0)"><text x="642.457px" y="324.074px" style="font-family:'PixeloidSans', 'Pixeloid Sans', monospace;font-size:416.667px;fill:#fff;">MovingBits</text></g><path d="M466.514,4.114l47.963,-0.384c0,0 -12.171,45.392 -12.171,45.392c-0,-0 -50.107,0.539 -50.107,0.539l14.315,-45.547Z" style="fill:#0067c1;"/><path d="M451.3,57.137l47.963,-0.384c0,0 -12.171,45.392 -12.171,45.392c-0,-0 -50.108,0.539 -50.108,0.539l14.316,-45.547Z" style="fill:#fff;"/><path d="M436.576,111.525l47.963,-0.383c0,-0 -12.171,45.391 -12.171,45.391c-0,0 -50.108,0.54 -50.108,0.54l14.316,-45.548Z" style="fill:#2d9ae6;"/><path d="M421.957,166.118l47.963,-0.384c0,-0 -12.171,45.392 -12.171,45.392c-0,-0 -50.108,0.539 -50.108,0.539l14.316,-45.547Z" style="fill:#fff;"/><path d="M406.775,220.723l47.964,-0.384c-0,0 -12.172,45.392 -12.172,45.392c0,-0 -50.107,0.539 -50.107,0.539l14.315,-45.547Z" style="fill:#74cff7;"/><path d="M392.188,274.944l47.964,-0.383c-0,-0 -12.172,45.392 -12.172,45.392c0,-0 -50.107,0.539 -50.107,0.539l14.315,-45.548Z" style="fill:#fff;"/><path d="M389.391,60.87l42.444,-0.34c0,0 -10.72,39.981 -10.72,39.981c-0,-0 -44.333,0.477 -44.333,0.477l12.609,-40.118Z" style="fill:#fff;"/><path d="M375.329,116.154l40.605,-0.325c0,0 -10.237,38.177 -10.237,38.177c0,-0 -42.408,0.456 -42.408,0.456l12.04,-38.308Z" style="fill:#2d9ae6;"/><path d="M360.048,169.851l42.444,-0.34c-0,0 -10.72,39.98 -10.72,39.98c-0,0 -44.333,0.478 -44.333,0.478l12.609,-40.118Z" style="fill:#fff;"/><path d="M344.866,224.456l42.444,-0.339c0,-0 -10.72,39.98 -10.72,39.98c0,-0 -44.333,0.477 -44.333,0.477l12.609,-40.118Z" style="fill:#74cff7;"/><path d="M330.279,278.678l42.444,-0.34c0,0 -10.72,39.98 -10.72,39.98c-0,0 -44.333,0.478 -44.333,0.478l12.609,-40.118Z" style="fill:#fff;"/><path d="M315.972,123.097l28.647,-0.229c-0,-0 -7.093,26.451 -7.093,26.451c-0,-0 -29.897,0.322 -29.897,0.322l8.343,-26.544Z" style="fill:#2d9ae6;"/><path d="M301.353,177.689l28.647,-0.229c-0,0 -7.093,26.451 -7.093,26.451c-0,0 -29.897,0.322 -29.897,0.322l8.343,-26.544Z" style="fill:#fff;"/><path d="M286.171,232.294l28.647,-0.229c0,0 -7.093,26.451 -7.093,26.451c0,0 -29.896,0.322 -29.896,0.322l8.342,-26.544Z" style="fill:#74cff7;"/><path d="M271.584,286.516l28.647,-0.229c-0,-0 -7.093,26.451 -7.093,26.451c0,0 -29.896,0.322 -29.896,0.322l8.342,-26.544Z" style="fill:#fff;"/><path d="M239.801,180.303l24.967,-0.2c0,0 -6.125,22.844 -6.125,22.844c-0,-0 -26.047,0.28 -26.047,0.28l7.205,-22.924Z" style="fill:#fff;"/><path d="M224.62,234.908l24.967,-0.199c-0,-0 -6.126,22.843 -6.126,22.843c0,0 -26.046,0.281 -26.046,0.281l7.205,-22.925Z" style="fill:#74cff7;"/><path d="M210.033,289.13l24.967,-0.2c-0,0 -6.126,22.844 -6.126,22.844c0,-0 -26.046,0.28 -26.046,0.28l7.205,-22.924Z" style="fill:#fff;"/><path d="M167.879,240.008l15.769,-0.126c-0,0 -3.707,13.825 -3.707,13.825c-0,-0 -16.423,0.176 -16.423,0.176l4.361,-13.875Z" style="fill:#74cff7;"/><path d="M153.292,294.23l15.769,-0.126c-0,-0 -3.707,13.824 -3.707,13.824c-0,0 -16.423,0.177 -16.423,0.177l4.361,-13.875Z" style="fill:#fff;"/><path d="M96.337,294.944l13.929,-0.111c-0,-0 -3.223,12.021 -3.223,12.021c-0,-0 -14.498,0.156 -14.498,0.156l3.792,-12.066Z" style="fill:#fff;"/><rect x="4.448" y="1.51" width="11.604" height="338.419" style="fill:#fff;"/></svg>